<svg width="32" height="32" viewBox="0 0 32 32" fill="none" xmlns="http://www.w3.org/2000/svg">
<g clip-path="url(#clip0_355_391)">
<rect width="32" height="32" rx="16" fill="white"/>
<path fill-rule="evenodd" clip-rule="evenodd" d="M16.0031 0C7.17006 0 0.00805664 7.162 0.00805664 15.997C0.00805664 23.064 4.59006 29.06 10.9481 31.176C11.7481 31.322 12.0001 30.848 12.0001 30.424C12.0001 30.044 12.0081 28.982 12.0001 27.647C7.55106 28.614 6.62906 25.54 6.62906 25.54C5.90206 23.692 4.85406 23.2 4.85406 23.2C3.40206 22.208 4.96306 22.227 4.96306 22.227C6.56806 22.34 7.41406 23.876 7.41406 23.876C8.84106 26.319 11.1571 25.613 12.0681 25.205C12.2141 24.171 12.6281 23.466 13.0851 23.066C9.53306 22.662 5.79906 21.29 5.79906 15.16C5.79906 13.413 6.42206 11.986 7.44506 10.868C7.28006 10.464 6.73006 8.837 7.60206 6.634C7.60206 6.634 8.94506 6.204 12.0001 8.275C13.2761 7.92 14.6451 7.743 16.0051 7.737C17.3641 7.743 18.7321 7.92 20.0101 8.275C23.0651 6.205 24.4061 6.634 24.4061 6.634C25.2781 8.837 24.7291 10.464 24.5651 10.868C25.5881 11.986 26.2091 13.413 26.2091 15.16C26.2091 21.306 22.4691 22.658 18.9051 23.053C19.4791 23.548 20.0001 24.508 20.0001 26C20.0001 28 20.0001 29.902 20.0001 30.428C20.0001 30.856 20.2581 31.329 21.0701 31.174C27.4221 29.055 32.0001 23.062 32.0001 15.997C32.0001 7.162 24.8381 0 16.0031 0Z" fill="#181616"/>
</g>
<defs>
<clipPath id="clip0_355_391">
<rect width="32" height="32" fill="white"/>
</clipPath>
</defs>
</svg>
