<?xml version="1.0" encoding="utf-8"?>
<!-- Generator: Adobe Illustrator 26.0.2, SVG Export Plug-In . SVG Version: 6.00 Build 0)  -->
<svg version="1.1" id="Layer_1" xmlns="http://www.w3.org/2000/svg" xmlns:xlink="http://www.w3.org/1999/xlink" x="0px" y="0px"
	 viewBox="0 0 521 212.1" style="enable-background:new 0 0 521 212.1;" xml:space="preserve">
<style type="text/css">
	.st0{fill:#296F6C;}
</style>
<g>
	<path class="st0" d="M4.1,204.5c0.1-1.3,0.6-2.4,1.5-3.3c1.7-1.4,5-7.6,9.8-18.7c2.4-5.8,3.9-9.6,4.3-11.5s0.7-4.9,0.7-9
		c0-9.5-2.9-17.7-8.4-24.6c-0.6-0.8-1-1.6-1.4-2.4c-0.5-0.8-0.7-1.8-0.7-3.3c0-4.4,2.5-8.2,7.5-11.1c8-4.7,16.8-8,26.3-9.7
		l21.1-55.2c6.7-16.9,11.4-28.1,13.9-33.3c0.9-3,3.2-6.8,6.8-11.9c0.2-0.2,1.1-0.8,2.9-1.6l0.6-0.1c0.1,0,0.2,0.1,0.5,0.1
		c0.2,0,0.5,0,0.6,0.1c0.1,0,0.3,0.1,0.6,0.2l0.1-0.1c0.9,0.3,1.6,0.8,2.2,1.5c1.1,1.9,3.1,19.2,5.8,51.6
		c1.7,20.8,2.9,35.1,3.6,43.2c9.9,0,19.7,0.5,29.4,1.4c0.3,0,0.6,0.1,0.6,0.5c0,0.5-0.2,0.7-0.6,0.7c-7.6-0.9-15.3-1.4-22.9-1.4
		l-6.4,0.1l3.4,37.3c1,14,2.7,27.1,5.2,39.1l0.1,0.2c0.3-0.1,0.7-0.2,1-0.2c1.3,0.2,1.8,0.8,1.8,1.8l-0.1,0.7
		c-0.5,1.8-1.4,2.7-3,3.1c-0.1,0-0.2,0-0.3-0.1c-0.7,0-1.4-0.5-1.8-1.3c-0.6-0.8-0.9-1.7-1.1-2.9c-2.3-11.5-3.9-23.3-4.8-35.4
		l-3.6-42.4c-8.9,0.1-17.1,0.6-24.6,1.3c-7.6,0.8-16.1,2.1-25.3,4l-1.4,3.9c-4.3,11.7-8.2,22.5-11.5,32.4
		c-4.9,14.9-10.9,30.9-17.9,47.8c-2.4,5-4.2,8.6-5.5,10.5c-0.1,0-0.3,0.1-0.5,0.3c-0.2,0.3-0.5,0.6-0.7,0.8c-0.3,0-0.6,0.1-0.7,0.2
		c-0.6,0.6-1.5,0.9-2.6,1C5.6,208.5,4.1,207.1,4.1,204.5z M42.9,113.5c-8.8,1.9-16.7,5.1-23.8,9.5c-1.6,1-3,2.3-4.1,3.8
		c-1.3,1.5-1.8,3.1-1.8,4.7c0,1.3,0.1,2.1,0.3,2.6c0.2,0.6,0.7,1.3,1.3,2.1c5.6,6.6,8.4,15.6,8.4,27.3
		C32.6,141.1,39.2,124.4,42.9,113.5z M54.6,108.8c14.9-2.3,29.9-3.4,44.6-3.5l-3-35c-2.3-25.4-4.6-43.2-7-53.4
		c-1.8,2.7-3.5,5.7-5.1,8.9C77.7,39.4,71.6,53.6,66,68.1c-6.8,17.3-12.1,31.2-15.7,41.5L54.6,108.8z"/>
	<path class="st0" d="M128.9,135.5c-0.9,0-1.5-0.2-1.9-0.6l-0.7-0.7c-0.5-0.7-0.7-1-0.7-1.3c-0.1,0-0.1-0.1-0.1-0.1l-0.1-0.5v-0.1
		c-0.1-0.2-0.1-0.5-0.1-0.6l-0.1-2.9v-1.5c0.1-2.5,0.2-4.8,0.5-7c0.3-4.4,0.8-8.4,1.3-12l0.3-2.4c0.3-2.6,0.7-4.8,1-6.7l1.4-8
		c0.2-0.8,0.6-1.5,1.3-1.9c0.6-0.3,1.1-0.5,1.7-0.5h0.6c0.8,0.1,1.5,0.6,1.8,1.1c0.5,0.7,0.7,1.4,0.7,2.2c0,0-0.3,2.6-0.8,7.9
		l-0.8,7c-0.2,3-0.6,6.4-1,9.9l1.3-2.5c2.5-4.9,5.1-9.9,8-15.1c1.4-2.5,2.9-5,4.6-7.5l0.7-1c0.3-0.5,0.7-0.9,1.1-1.4
		c0.5-0.5,1-1,1.8-1.5l0.9-0.1h0.6c0.3,0,0.6,0.1,0.9,0.3l0.6,0.5c0.1,0.3,0.3,0.6,0.5,0.7L154,90c0.1,0.1,0.1,0.2,0.1,0.3
		c0.2,0.8,0.5,1.6,0.6,2.4c0.3,3.6,0.5,7.2,0.5,10.7v3.2l0.1,6.2c3-4.4,6.5-8.2,10.3-11.4c1-0.9,2.3-1.5,3.8-1.8h0.7
		c0.6,0,1.3,0.1,1.8,0.5c0.7,0.6,1.3,1.1,1.5,1.8c0.7,1.9,1,3.6,1,5.2v0.7l0.1,1.3c0,2.2,0.5,4,1.3,5.2c0.6,0.8,1.5,1.3,2.5,1.3
		l1.3-0.2c3.2-1,5.7-2.3,7.8-3.9l6.3-5c0.1-0.1,0.2-0.1,0.3-0.1l0.3,0.1c0.1,0.1,0.2,0.2,0.2,0.5c0,0.1-0.1,0.2-0.2,0.3l-1.5,1.5
		c-0.9,1-2.4,2.4-4.4,4.1l-0.5,0.3c-1.8,1.7-4.4,3.1-7.8,4.4c-0.8,0.1-1.5,0.2-2.3,0.2h-0.9c-1.4-0.2-2.4-0.9-3.2-2.1
		c-1-1.8-1.6-3.8-1.6-5.7v-1.8c0-1.9-0.2-3.8-0.8-5.5c-0.3-0.7-0.8-1.1-1.4-1.1h-0.2c-0.9,0.2-1.8,0.7-2.9,1.5
		c-3.6,3.2-6.5,7.3-8.6,12.3l-0.7,1.8c-0.2,0.5-0.3,1.1-0.6,1.8l-0.2,0.6c0,0.2-0.1,0.6-0.3,0.8l-0.6,1.3l-0.3,0.3l-0.5,0.3
		c-0.1,0.1-0.3,0.2-0.6,0.2c-0.3,0.1-0.6,0.2-0.8,0.2c-0.3,0-0.7-0.1-0.9-0.2l-0.7-0.3c-0.5-0.5-0.7-0.7-0.8-0.9l-0.2-0.6
		c0-0.1,0-0.2-0.1-0.2l-0.1-1.5c0-2.7,0-5.2,0.2-7.6v-1.1l0.2-3.1c0.2-2.6,0.2-5.2,0.2-7.8c0-2.2,0-4.2-0.1-6.3l-0.3-1.4l-1.4,1.9
		c-1.4,2.4-2.7,4.9-3.9,7.5c-2.1,4.3-3.9,8.8-5.5,13.1c-0.3,0.8-0.7,1.6-0.9,2.4c-1.9,5-3.9,9.9-5.9,14.7l-1.1,2.2
		c0,0.1-0.1,0.2-0.2,0.3c-0.1,0.2-0.3,0.3-0.6,0.6c-0.1,0.1-0.2,0.1-0.3,0.3c-0.2,0.1-0.3,0.2-0.6,0.2c-0.2,0.1-0.3,0.2-0.6,0.2
		c-0.2,0.1-0.3,0.1-0.6,0.1H128.9z"/>
	<path class="st0" d="M250.4,185.8c-1.4-1.3-1.3-1.5-1.7-2.2c-0.5-2.4-0.7-6.6-0.7-12.7c0-4.7,0.2-22.8,0.7-54.6
		c0.2-6.7,0.3-13.6,0.3-20.4l2.2-57.4V36l-2.7,0.3c-0.2,0-0.6,0-0.8,0.1l-2.6,6.7c-28.6,76-40.6,96.4-48.7,96.4
		c-1.5-0.3-2.5-1-3.1-2.1c-1.1-1.8-1.8-3.2-1.8-4.3c-0.6-2.9-0.9-5.9-0.9-9.5c0-15.7,0.9-20.1,2.2-31.7c0.5-2.2,1.8-3.3,3.5-3.3
		c3,0,3.9,1.9,3.9,3.8c0,0.5-0.5,3.3-1.5,8.7c-2.3,13.9-2.6,21.6-2.6,27.6c0,2.3,0.5,4.8,1.1,5.9v0.1c2.3-0.8,4.7-3.6,7.5-8.3
		c5.8-9.5,11.2-19.6,16.1-30.6c10-22,18.4-41.9,24.9-59.3c-21.8,2.4-43.3,4.8-47.6,5.5c-0.8,0.1-1.7,0.1-2.6,0.1h-1.9
		c-0.9-0.7-1.3-1.3-1.3-1.7c0-0.9,0.6-1.7,1-1.7c0.1,0,0.2,0,0.2-0.1l25.8-5.4c1.1,0,2.7,0.7,2.7,2.2c0,0.5-0.1,0.8-0.3,1.1
		c3.6-0.6,12-1.5,25.1-2.9l5.1-13.7c0.6-12.3,1-12.3,1.8-13.9c0.8-1.5,2.1-2.3,3.9-2.3c2.2,0,4.2,1.7,4.2,4.2c0,1.1-0.2,1.8-0.7,2.3
		c-0.1,0.1-0.2,0.3-0.2,0.7c-0.9,3.3-1.9,10.6-3.1,21.7c26.8-2.6,26.2-2.3,46.4-3.6c0.8,0,1.1,0.3,1.1,1s-0.3,1-1,1.3
		c-20.5,1.5-20.3,1.3-46.8,4.1l-0.1,0.3c-1.4,17.3-2.5,37.4-3.4,60.2c-1.5,29.3-1.6,40.3-1.6,60.4c0.2,13,0.7,21,1.4,24.2
		c0.8,0.6,1.1,1.4,1.1,2.2c0,1-0.1,1.5-1,2.4c-0.2,0.2-0.5,0.2-1,0.6c-0.2,0.1-0.5,0.2-0.8,0.2C251.5,186,251.2,186,250.4,185.8z
		 M198.4,72.4l1.5-8.7c0.3-1.6,1.3-2.4,2.6-2.4c1.9,0.3,3,0.8,3,2.9c0,0.6-0.1,0.9-0.3,1.1l-3.4,7.8c-0.3,0.7-0.8,1-1.6,1
		C199.2,74.1,198.4,73.3,198.4,72.4z M251.5,33.3l0.2-7.2l-2.9,7.4L251.5,33.3z"/>
	<path class="st0" d="M316.8,180.5c-1.3-0.8-1.6-0.6-2.2-1.9c0-0.1-0.1-0.1-0.1-0.1c-1.6-3.8-1.5-5.6-2.1-8.7
		c-0.8-6.6-1.3-14.5-1.3-23.6c0-29,3.9-55.4,11.6-79.5c0.2-16.7,0.3-33.3,0.5-50l-0.1-1.1c0.2-1.5-0.1-1.3,0.6-3
		c0-0.7,1.5-2.2,3-2.2c1.9,0,2.9,1.6,3.2,1.9c1.7,3.1,2.4,5.4,2.4,6c0,2.1-1.7,3.6-3.6,3.6l-0.6,31.1c7-17.1,20.3-33.8,37.8-39.1
		c4.7-1.6,9.1-2.4,13.3-2.4c4.2,0,8.2,0.9,12.3,2.7c9.2,5,13.8,14,13.8,26.8c0,17-10.3,35.6-24.3,47.8c-15.3,13-33.4,20-54.5,20.9
		l-0.1,0.7c33.1,22.4,68.8,43.1,89.2,50.2c0.5-0.2,1-0.3,1.5-0.3c2.2,0,4.2,1.4,4.2,4.2c0,1.4-0.7,2.5-2.1,3.6
		c-0.6,0.3-1.3,0.2-2.5,0.7c-3.6-0.6-7.2-2.2-38.2-21.8c-23.4-14.6-40.8-25.2-52.2-31.9c-0.9,18.8-0.2,9.6-1.5,28.1
		c-0.5,9.8-1.5,19.6-2.9,29.5c-0.2,1.5-0.7,2.9-1.1,4.3c0,0.7-0.6,1.6-1.5,2.7c-0.7,0.5-1.4,0.7-1.9,0.7L316.8,180.5z M317.8,172.2
		c1.4-9.7,2.3-19.6,2.7-29.8c0.2-3.4,0.7-13.3,1.3-29.8l-4.4-2.5c-1.4,11.3-2.1,22.7-2.1,34.1c0,14.1,0.7,24,2.2,29.5L317.8,172.2z
		 M318.6,105.1h3.4l0.6-24.7c-2.1,8.3-3.7,16.9-4.7,25.4C318.2,105.6,318.5,105.4,318.6,105.1z M395.9,59.5
		c2.7-6.7,4.1-13.1,4.1-19.4c0-16.2-9.2-24.3-21.3-24.3c-1.3,0-2.6,0.1-3.9,0.3c-10.8,1.4-20.1,6-27.6,14
		c-9.8,10.6-13.8,18.7-19.3,33.1c-0.3,13.9-0.8,27.7-1.3,41.6C355.6,102.8,384,87.9,395.9,59.5z"/>
	<path class="st0" d="M391.6,195.2c-3.1-4.1-4.6-9-4.6-14.6c0-1.8,0.2-3.7,0.6-5.5c2.9-12.4,9.6-22.4,17.7-30.9
		c4.4-24.3,7.4-40.3,13.1-61.9c1.7-12.7,4.6-25.2,6.2-39.3c-4.3,9.7-5.7,13.6-7.3,15.9l-0.1,0.1c0,0.5-1.9,1.4-2.1,1.5h-1
		c-1.3,0-1.9-0.7-2.6-2.3c-0.2-0.2-0.3-0.7-0.3-1.4c0-1.3,0.9-2.9,3.3-2.9c1.7-2.4,4.3-7,7.1-12.5c1.7-4,3.2-6.8,4.4-8.7
		c0.3-0.7,0.9-1,1.9-1c1,0,1.1,0.7,1.1,2.1c-0.3,6.7-1,13.5-1.9,20.1c4.4-13.8,9.9-22.2,16.3-25.2c0.9-0.3,1.9-0.5,3-0.5
		c3.5,0,7,2.4,7.6,3.5c4.9,4.9,6.8,9.9,6.8,17.6s-3.3,15.5-6.5,21v0.1c3-1.6,5.7-2.3,9.6-2.3c6.2,0.5,9.9,1,15.6,4.4
		c10.6,6.5,15.3,18.8,16.1,32.2c7.2,0.1,14.3,1,21.2,2.9c0.2,0,0.5,0.2,0.5,0.6c-0.2,0.3-0.5,0.5-0.7,0.5
		c-6.8-1.7-13.8-2.6-20.9-2.7c0,24.1-8.4,44.9-27.5,65.5c-13.5,14.6-28.2,24.5-44.1,29.9c-4.3,1.5-8.9,2.3-13.6,2.5
		C402.7,203.7,396.1,201.5,391.6,195.2z M444.8,184.3c25.7-19,43-47.2,43-73.9l-0.1-4.3c-28.2,2.1-53.8,14.7-74.2,33.5
		c-2.5,12.8-1.9,10-4.8,22.7l-0.1,0.3c-0.7,3-0.8,2.9-1.5,3.9c-0.6,0.3-0.8,0.9-2.1,1c-0.2-0.1-0.5-0.1-0.6-0.1l-0.7-0.3
		c-0.8-1-1.1-1.4-1.1-1.7l-0.2-1.8c0-1.7,0.3-4,0.9-6.8l1.1-7.5c-7.3,9.4-11.3,15.2-13.6,26.5c-0.3,1.5-0.5,3-0.5,4.4
		c0,10.7,7.3,19,18.4,19C419.8,199.1,433.3,192.8,444.8,184.3z M408.9,140.6c2.4-11.5,4.6-23,6.4-34.6c-3.1,14.6-5.4,26.1-6.6,34.8
		L408.9,140.6z M413.4,55.3c-0.2,0.1-0.2,0.1-0.2,0.2L413.4,55.3z M487.7,104.8l-0.8-6.6c-2.6-14.9-11.7-23.2-24-23.2
		c-5.6,0-13.7,4.6-22.2,13.8c-3,3.2-1.6,1.8-4.8,5c-0.8,0.8-1.5,1.3-2.1,1.3c-1.5,0-2.6-0.8-2.6-2.7c0-0.6,0.1-1,0.6-1.5v-0.1h0.1
		l6.7-7.8c11.2-13.6,16.8-25.4,16.8-35.5c0-6.3-2.4-11.5-3.9-13c-0.2-0.2-0.5-0.5-0.5-0.6c-1.6-1.5-3.1-2.3-4.7-2.3
		c-6.5,0-13.9,13.6-18.7,29.2c-0.2,1-0.6,1.9-0.9,2.9c-0.8,2.4-1.4,4.9-1.8,7.5c-0.5,0.7-0.7,1.4-0.9,2.2c0,0.9-0.3,1.9-0.5,2.7
		c-0.9,5-1.7,10-2.2,14.9c-1.8,14.9-4.2,29.9-7.2,44.6C435.7,118,461.6,106.3,487.7,104.8z"/>
</g>
</svg>
