<?xml version="1.0" encoding="utf-8"?>
<!-- Generator: Adobe Illustrator 26.0.2, SVG Export Plug-In . SVG Version: 6.00 Build 0)  -->
<svg version="1.1" id="Layer_1" xmlns="http://www.w3.org/2000/svg" xmlns:xlink="http://www.w3.org/1999/xlink" x="0px" y="0px"
	 viewBox="0 0 521 512" style="enable-background:new 0 0 521 512;" xml:space="preserve">
<style type="text/css">
	.st0{fill:#296F6C;}
</style>
<path class="st0" d="M502.5,304.5c-1.1,0-2.6,0.3-3.7,0.9c-12.9-4.5-34.8-15.3-60.6-29c-12.4-6.6-23.4-12.5-35.5-19.2
	c-2.9-1.6-5.7-3.2-8.5-4.7c4.1-17.2,6.2-35,6.2-53.6c17.8,0.3,35.3,2.6,52.6,6.9c0.6,0,1.1-0.3,1.7-1.1c0-0.9-0.6-1.4-1.1-1.4
	c-17.5-4.6-35.3-6.9-53.4-7.2c-2-33.6-13.8-64.6-40.5-81c-14.4-8.6-23.8-10.1-39.4-11.2c-9.8,0-16.7,1.7-24.1,5.7v-0.3
	c8-13.8,16.4-33.6,16.4-52.9c0-19.2-4.9-31.9-17.2-44.2c-1.7-2.9-10.3-8.9-19.2-8.9c-2.6,0-5.2,0.3-7.5,1.1
	c-12.7,5.9-23.9,20.4-33.6,43.2c-2.6-23.9-4.7-37.2-6.2-39.7c-1.4-1.7-3.2-2.9-5.5-3.7L223,4.3c-0.6-0.3-1.1-0.6-1.4-0.6
	c-0.3-0.3-0.9-0.3-1.4-0.3c-0.6,0-0.9-0.3-1.1-0.3l-1.4,0.3c-4.3,2-6.6,3.4-7.2,4c-9.2,12.6-14.9,22.4-17.2,29.9
	c-6.3,13.2-18.1,41.4-35,83.9l-53.1,139c-24.1,4.3-46.2,12.6-66.4,24.4c-12.6,7.2-19,16.7-19,27.9c0,3.7,0.6,6.3,1.7,8.3
	c0.9,2,2,4,3.4,6C38.9,344.4,46,365.1,46,389c0,10.3-0.6,17.8-1.7,22.7c-1.1,4.9-4.9,14.4-10.9,29C21.3,468.5,13,484.3,8.7,487.8
	c-2.3,2.3-3.4,5.2-3.7,8.3c-0.1,0.9-0.1,3.9,1.9,6.6c3.2,4.5,9.1,4.3,9.6,4.3c1.6-0.2,4.1-0.7,6.8-2.3c2-1.2,3.5-2.6,4.4-3.6
	c3.2-4.9,7.8-13.8,13.8-26.4C59,432,74.2,391.8,86.5,354.2c8.3-25,18.1-52,29-81.6l3.4-9.8c23.3-4.9,44.5-8,63.8-10.1
	c13.9-1.3,28.8-2.2,44.6-2.8c-11.2,7.4-22,15.4-32.4,24c0-0.2-22.4,21.3-22.4,21.5c-20.4,21.5-37.3,46.5-44.5,77.8
	c-0.9,4.6-1.4,9.2-1.4,13.8c0,14.1,3.7,26.4,11.5,36.8c11.2,15.8,27.9,21.3,47.7,21.3c11.8-0.6,23.3-2.6,34.2-6.3
	c18.6-6.4,33.6-14.1,41.5-18.6c0,0,0.1,0,0.1-0.1c1.4,8.5,2.8,16.9,4.5,25.3c0.6,2.9,1.4,5.2,2.9,7.2c1.1,2,2.9,3.2,4.6,3.2
	c0.3,0.3,7.2-2.9,8.3-7.5l0.3-1.7c0-2.6-1.4-4-4.6-4.6c-0.9,0-1.7,0.3-2.6,0.6l-0.3-0.6c-1.8-8.7-3.5-17.6-4.9-26.8c0,0,0,0,0,0
	c33.8-21.2,61.4-51.7,61.4-51.7c17.9-19.8,45.9-51.5,60.4-101.2c4.5,2.8,9.2,5.7,13.9,8.7c78.1,49.4,87,53.4,96.2,54.9
	c3.2-1.1,4.9-0.9,6.3-1.7c3.4-2.9,5.2-5.7,5.2-9.2C513.2,307.9,508,304.5,502.5,304.5z M52.9,392.4c0-29.3-7.2-52-21.3-68.7
	c-1.4-2-2.6-3.7-3.2-5.2c-0.6-1.4-0.9-3.4-0.9-6.6c0-4,1.4-8,4.6-11.8c2.9-3.7,6.3-6.9,10.3-9.5c18.1-10.9,37.9-19,60-23.8
	C93.4,294.5,76.8,336.4,52.9,392.4z M317.6,121.2c30.7,0,53.7,20.7,60.3,58.3l2,16.7c-21.2,1.2-42.3,5.1-63,11.3
	c-28.7-16.9-53.4-31.6-66.7-39.5c-0.1,0.1-0.3,0.3-0.6,0.6c0.2-0.3,0.8-0.9,1.7-1.7c0.9-0.9,1.3-1.2,4.4-4.4c1.2-1.2,2.1-2.3,6-6.5
	C283.2,132.7,303.6,121.2,317.6,121.2z M307.1,210.6c-19,6.4-37.7,14.8-55.6,24.8c-1.5-16.8-3.5-40.6-6-71.3c0,0,0,0.1,0,0.1
	c0.2,2.3,0.4,4.8,0.6,7.1c0.1,0.8,0.1,1.6,0.2,2.5c0,0.4,0.1,0.8,0.1,1.2c5.7,2.9,9.5,5.3,12.9,7.3c3.4,2,8.3,4.9,14.6,8.5
	C283.3,196.3,294.4,202.9,307.1,210.6z M276,12.1c4,0,7.8,2,11.8,5.7c0,0.3,0.6,0.9,1.1,1.4c3.7,3.7,9.8,16.9,9.8,32.7
	c0,25.3-14.1,55.2-42.2,89.3c-0.1,0.1-11.5,13.3-11.7,13.4c-0.5-5.5-0.9-11.2-1.4-17.2c-2.2-25.6-4.1-47.5-5.9-65.5
	C250.7,43.4,267,12.1,276,12.1z M244.5,246.2c-0.9,0-1.9,0-2.8,0c0.9-0.6,1.8-1.1,2.7-1.6L244.5,246.2z M132.2,255.1l-10.9,2
	c9.2-25.9,22.4-60.9,39.6-104.6C175,116.1,190.2,80.4,206.6,46c4-8,8.3-15.5,12.9-22.4c2.6,11.2,5.2,26.1,7.8,44.6
	c-1,3.4-8,29-10.1,42.1c-0.1,0.6-0.9,4.2-1.6,7.1c0.5,0.4,1.1,0.7,1.5,1.2c0.6-0.8,5.7-13.4,12.8-29.7c2.4,19.8,4.7,42.8,7.1,69.2
	l6.9,81.7c-3.7,2.2-7.3,4.4-10.9,6.7C199.7,247.1,166,249.9,132.2,255.1z M259.2,405.5c-45.5,30.9-78,28.3-78,28.3
	c-7.9-0.6-18.4-1.6-28.2-9c-11.4-8.6-18-22.7-18-38.9c0-3.7,0.3-7.5,1.1-11.2c5.7-28.4,15.8-43.1,34.2-66.6c0,0,4.9-6.4,6.6-8.2
	c2.2-2.4,10.4-10,11.9-11.8c0.8-0.9,4.2-4,4.2-4.1c13.6-12.5,28.1-23.9,43.3-34c2.8-0.1,5.6-0.1,8.5-0.2l9.2,106.9
	c1.2,16.4,3,32.6,5.2,48.6C259.3,405.2,259.3,405.3,259.2,405.5C259.3,405.5,259.2,405.5,259.2,405.5z M272,396.4
	c-2,1.5-4.6,3.3-4.6,3.3c0,0,0,0,0,0c0,0,0,0,0,0c-2.5-18-4.5-36.7-5.9-56.2l-8.6-93.9l16.1-0.3c19.2,0,38.5,1.1,57.7,3.4
	c0.9,0,1.4-0.6,1.4-1.7c0-0.9-0.6-1.1-1.4-1.1c-24.4-2.3-49.1-3.4-74.1-3.4c-0.2-2-0.4-4.2-0.6-6.5c18.8-11,38.6-20.1,59.3-26.9
	c18.1,11,39.3,24,63.6,39C361.3,305.8,323.3,358.4,272,396.4z M377,242.6c-9.4-5.4-16.9-9.8-22.3-12.9
	c-11.4-6.7-22.7-13.3-33.5-19.7c19-5.5,38.6-9.2,58.8-10.6l0.3,10.9C380.3,221,379.2,231.8,377,242.6z M502.8,306.5
	c-1.1,0-2.6,0.3-3.7,0.9c-12.9-4.5-34.8-15.3-60.6-29c-12.4-6.6-23.4-12.5-35.5-19.2c-2.9-1.6-5.7-3.2-8.5-4.7
	c4.1-17.2,6.2-35,6.2-53.6c17.8,0.3,35.3,2.6,52.6,6.9c0.6,0,1.1-0.3,1.7-1.1c0-0.9-0.6-1.4-1.1-1.4c-17.5-4.6-35.3-6.9-53.4-7.2
	c-2-33.6-13.8-64.6-40.5-81c-14.4-8.6-23.8-10.1-39.4-11.2c-9.8,0-16.7,1.7-24.1,5.7v-0.3c8-13.8,16.4-33.6,16.4-52.9
	c0-19.2-4.9-31.9-17.2-44.2c-1.7-2.9-10.3-8.9-19.2-8.9c-2.6,0-5.2,0.3-7.5,1.1c-12.7,5.9-23.9,20.4-33.6,43.2
	c-2.6-23.9-4.7-37.2-6.2-39.7c-1.4-1.7-3.2-2.9-5.5-3.7l-0.3,0.3c-0.6-0.3-1.1-0.6-1.4-0.6c-0.3-0.3-0.9-0.3-1.4-0.3
	c-0.6,0-0.9-0.3-1.1-0.3l-1.4,0.3c-4.3,2-6.6,3.4-7.2,4c-9.2,12.6-14.9,22.4-17.2,29.9c-6.3,13.2-18.1,41.4-35,83.9l-53.1,139
	C81,266.6,58.9,275,38.8,286.7c-12.6,7.2-19,16.7-19,27.9c0,3.7,0.6,6.3,1.7,8.3c0.9,2,2,4,3.4,6c14.1,17.5,21.3,38.2,21.3,62
	c0,10.3-0.6,17.8-1.7,22.7c-1.1,4.9-4.9,14.4-10.9,29c-12.1,27.9-20.4,43.7-24.7,47.1c-2.3,2.3-3.4,5.2-3.7,8.3
	c-0.1,0.9-0.1,3.9,1.9,6.6c3.2,4.5,9.1,4.3,9.6,4.3c1.6-0.2,4.1-0.7,6.8-2.3c2-1.2,3.5-2.6,4.4-3.6c3.2-4.9,7.8-13.8,13.8-26.4
	c17.5-42.5,32.7-82.7,45.1-120.4c8.3-25,18.1-52,29-81.6l3.4-9.8c23.3-4.9,44.5-8,63.8-10.1c13.9-1.3,28.8-2.2,44.6-2.8
	c-11.2,7.4-22,15.4-32.4,24c0-0.2-22.4,21.3-22.4,21.5c-20.4,21.5-37.3,46.5-44.5,77.8c-0.9,4.6-1.4,9.2-1.4,13.8
	c0,14.1,3.7,26.4,11.5,36.8c11.2,15.8,27.9,21.3,47.7,21.3c11.8-0.6,23.3-2.6,34.2-6.3c18.6-6.4,33.6-14.1,41.5-18.6
	c0,0,0.1,0,0.1-0.1c1.4,8.5,2.8,16.9,4.5,25.3c0.6,2.9,1.4,5.2,2.9,7.2c1.1,2,2.9,3.2,4.6,3.2c0.3,0.3,7.2-2.9,8.3-7.5l0.3-1.7
	c0-2.6-1.4-4-4.6-4.6c-0.9,0-1.7,0.3-2.6,0.6l-0.3-0.6c-1.8-8.7-3.5-17.6-4.9-26.8c0,0,0,0,0,0c33.8-21.2,61.4-51.7,61.4-51.7
	c17.9-19.8,45.9-51.5,60.4-101.2c4.5,2.8,9.2,5.7,13.9,8.7c78.1,49.4,87,53.4,96.2,54.9c3.2-1.1,4.9-0.9,6.3-1.7
	c3.4-2.9,5.2-5.7,5.2-9.2C513.4,310,508.2,306.5,502.8,306.5z M53.2,394.5c0-29.3-7.2-52-21.3-68.7c-1.4-2-2.6-3.7-3.2-5.2
	c-0.6-1.4-0.9-3.4-0.9-6.6c0-4,1.4-8,4.6-11.8c2.9-3.7,6.3-6.9,10.3-9.5c18.1-10.9,37.9-19,60-23.8C93.7,296.5,77,338.4,53.2,394.5z
	 M317.9,123.3c30.7,0,53.7,20.7,60.3,58.3l2,16.7c-21.2,1.2-42.3,5.1-63,11.3c-28.7-16.9-53.4-31.6-66.7-39.5
	c-0.1,0.1-0.3,0.3-0.6,0.6c0.2-0.3,0.8-0.9,1.7-1.7c0.9-0.9,1.3-1.2,4.4-4.4c1.2-1.2,2.1-2.3,6-6.5
	C283.4,134.8,303.8,123.3,317.9,123.3z M307.4,212.7c-19,6.4-37.7,14.8-55.6,24.8c-1.5-16.8-3.5-40.6-6-71.3c0,0,0,0.1,0,0.1
	c0.2,2.3,0.4,4.8,0.6,7.1c0.1,0.8,0.1,1.6,0.2,2.5c0,0.4,0.1,0.8,0.1,1.2c5.7,2.9,9.5,5.3,12.9,7.3c3.4,2,8.3,4.9,14.6,8.5
	C283.6,198.4,294.7,205,307.4,212.7z M276.2,14.1c4,0,7.8,2,11.8,5.7c0,0.3,0.6,0.9,1.1,1.4c3.7,3.7,9.8,16.9,9.8,32.7
	c0,25.3-14.1,55.2-42.2,89.3c-0.1,0.1-11.5,13.3-11.7,13.4c-0.5-5.5-0.9-11.2-1.4-17.2c-2.2-25.6-4.1-47.5-5.9-65.5
	C250.9,45.5,267.3,14.1,276.2,14.1z M244.8,248.3c-0.9,0-1.9,0-2.8,0c0.9-0.6,1.8-1.1,2.7-1.6L244.8,248.3z M132.5,257.2l-10.9,2
	c9.2-25.9,22.4-60.9,39.6-104.6c14.1-36.5,29.3-72.1,45.7-106.6c4-8,8.3-15.5,12.9-22.4c2.6,11.2,5.2,26.1,7.8,44.6
	c-1,3.4-8,29-10.1,42.1c-0.1,0.6-0.9,4.2-1.6,7.1c0.5,0.4,1.1,0.7,1.5,1.2c0.6-0.8,5.7-13.4,12.8-29.7c2.4,19.8,4.7,42.8,7.1,69.2
	l6.9,81.7c-3.7,2.2-7.3,4.4-10.9,6.7C200,249.2,166.2,252,132.5,257.2z M259.5,407.5c-45.5,30.9-78,28.3-78,28.3
	c-7.9-0.6-18.4-1.6-28.2-9c-11.4-8.6-18-22.7-18-38.9c0-3.7,0.3-7.5,1.1-11.2c5.7-28.4,15.8-43.1,34.2-66.6c0,0,4.9-6.4,6.6-8.2
	c2.2-2.4,10.4-10,11.9-11.8c0.8-0.9,4.2-4,4.2-4.1c13.6-12.5,28.1-23.9,43.3-34c2.8-0.1,5.6-0.1,8.5-0.2l9.2,106.9
	c1.2,16.4,3,32.6,5.2,48.6C259.5,407.3,259.5,407.4,259.5,407.5C259.5,407.5,259.5,407.5,259.5,407.5z M272.2,398.5
	c-2,1.5-4.6,3.3-4.6,3.3c0,0,0,0,0,0c0,0,0,0,0,0c-2.5-18-4.5-36.7-5.9-56.2l-8.6-93.9l16.1-0.3c19.2,0,38.5,1.1,57.7,3.4
	c0.9,0,1.4-0.6,1.4-1.7c0-0.9-0.6-1.1-1.4-1.1c-24.4-2.3-49.1-3.4-74.1-3.4c-0.2-2-0.4-4.2-0.6-6.5c18.8-11,38.6-20.1,59.3-26.9
	c18.1,11,39.3,24,63.6,39C361.6,307.9,323.5,360.4,272.2,398.5z M377.3,244.7c-9.4-5.4-16.9-9.8-22.3-12.9
	c-11.4-6.7-22.7-13.3-33.5-19.7c19-5.5,38.6-9.2,58.8-10.6l0.3,10.9C380.5,223.1,379.4,233.9,377.3,244.7z M505.9,306.5
	c-1.1,0-2.6,0.3-3.7,0.9c-12.9-4.5-34.8-15.3-60.6-29c-12.4-6.6-23.4-12.5-35.5-19.2c-2.9-1.6-5.7-3.2-8.5-4.7
	c4.1-17.2,6.2-35,6.2-53.6c17.8,0.3,35.3,2.6,52.6,6.9c0.6,0,1.1-0.3,1.7-1.1c0-0.9-0.6-1.4-1.1-1.4c-17.5-4.6-35.3-6.9-53.4-7.2
	c-2-33.6-13.8-64.6-40.5-81c-14.4-8.6-23.8-10.1-39.4-11.2c-9.8,0-16.7,1.7-24.1,5.7v-0.3c8-13.8,16.4-33.6,16.4-52.9
	c0-19.2-4.9-31.9-17.2-44.2c-1.7-2.9-10.3-8.9-19.2-8.9c-2.6,0-5.2,0.3-7.5,1.1c-12.7,5.9-23.9,20.4-33.6,43.2
	c-2.6-23.9-4.7-37.2-6.2-39.7c-1.4-1.7-3.2-2.9-5.5-3.7l-0.3,0.3c-0.6-0.3-1.1-0.6-1.4-0.6c-0.3-0.3-0.9-0.3-1.4-0.3
	c-0.6,0-0.9-0.3-1.1-0.3l-1.4,0.3c-4.3,2-6.6,3.4-7.2,4c-9.2,12.6-14.9,22.4-17.2,29.9c-6.3,13.2-18.1,41.4-35,83.9l-53.1,139
	C84.1,266.6,62,275,41.9,286.7c-12.6,7.2-19,16.7-19,27.9c0,3.7,0.6,6.3,1.7,8.3c0.9,2,2,4,3.4,6c14.1,17.5,21.3,38.2,21.3,62
	c0,10.3-0.6,17.8-1.7,22.7c-1.1,4.9-4.9,14.4-10.9,29c-12.1,27.9-20.4,43.7-24.7,47.1c-2.3,2.3-3.4,5.2-3.7,8.3
	c-0.1,0.9-0.1,3.9,1.9,6.6c3.2,4.5,9.1,4.3,9.6,4.3c1.6-0.2,4.1-0.7,6.8-2.3c2-1.2,3.5-2.6,4.4-3.6c3.2-4.9,7.8-13.8,13.8-26.4
	c17.5-42.5,32.7-82.7,45.1-120.4c8.3-25,18.1-52,29-81.6l3.4-9.8c23.3-4.9,44.5-8,63.8-10.1c13.9-1.3,28.8-2.2,44.6-2.8
	c-11.2,7.4-22,15.4-32.4,24c0-0.2-22.4,21.3-22.4,21.5c-20.4,21.5-37.3,46.5-44.5,77.8c-0.9,4.6-1.4,9.2-1.4,13.8
	c0,14.1,3.7,26.4,11.5,36.8c11.2,15.8,27.9,21.3,47.7,21.3c11.8-0.6,23.3-2.6,34.2-6.3c18.6-6.4,33.6-14.1,41.5-18.6
	c0,0,0.1,0,0.1-0.1c1.4,8.5,2.8,16.9,4.5,25.3c0.6,2.9,1.4,5.2,2.9,7.2c1.1,2,2.9,3.2,4.6,3.2c0.3,0.3,7.2-2.9,8.3-7.5l0.3-1.7
	c0-2.6-1.4-4-4.6-4.6c-0.9,0-1.7,0.3-2.6,0.6l-0.3-0.6c-1.8-8.7-3.5-17.6-4.9-26.8c0,0,0,0,0,0c33.8-21.2,61.4-51.7,61.4-51.7
	c17.9-19.8,45.9-51.5,60.4-101.2c4.5,2.8,9.2,5.7,13.9,8.7c78.1,49.4,87,53.4,96.2,54.9c3.2-1.1,4.9-0.9,6.3-1.7
	c3.4-2.9,5.2-5.7,5.2-9.2C516.5,310,511.3,306.5,505.9,306.5z M56.3,394.5c0-29.3-7.2-52-21.3-68.7c-1.4-2-2.6-3.7-3.2-5.2
	c-0.6-1.4-0.9-3.4-0.9-6.6c0-4,1.4-8,4.6-11.8c2.9-3.7,6.3-6.9,10.3-9.5c18.1-10.9,37.9-19,60-23.8
	C96.8,296.5,80.1,338.4,56.3,394.5z M321,123.3c30.7,0,53.7,20.7,60.3,58.3l2,16.7c-21.2,1.2-42.3,5.1-63,11.3
	c-28.7-16.9-53.4-31.6-66.7-39.5c-0.1,0.1-0.3,0.3-0.6,0.6c0.2-0.3,0.8-0.9,1.7-1.7c0.9-0.9,1.3-1.2,4.4-4.4c1.2-1.2,2.1-2.3,6-6.5
	C286.5,134.8,306.9,123.3,321,123.3z M310.5,212.7c-19,6.4-37.7,14.8-55.6,24.8c-1.5-16.8-3.5-40.6-6-71.3c0,0,0,0.1,0,0.1
	c0.2,2.3,0.4,4.8,0.6,7.1c0.1,0.8,0.1,1.6,0.2,2.5c0,0.4,0.1,0.8,0.1,1.2c5.7,2.9,9.5,5.3,12.9,7.3c3.4,2,8.3,4.9,14.6,8.5
	C286.7,198.4,297.8,205,310.5,212.7z M279.3,14.1c4,0,7.8,2,11.8,5.7c0,0.3,0.6,0.9,1.1,1.4c3.7,3.7,9.8,16.9,9.8,32.7
	c0,25.3-14.1,55.2-42.2,89.3c-0.1,0.1-11.5,13.3-11.7,13.4c-0.5-5.5-0.9-11.2-1.4-17.2c-2.2-25.6-4.1-47.5-5.9-65.5
	C254,45.5,270.3,14.1,279.3,14.1z M247.9,248.3c-0.9,0-1.9,0-2.8,0c0.9-0.6,1.8-1.1,2.7-1.6L247.9,248.3z M135.5,257.2l-10.9,2
	c9.2-25.9,22.4-60.9,39.6-104.6c14.1-36.5,29.3-72.1,45.7-106.6c4-8,8.3-15.5,12.9-22.4c2.6,11.2,5.2,26.1,7.8,44.6
	c-1,3.4-8,29-10.1,42.1c-0.1,0.6-0.9,4.2-1.6,7.1c0.5,0.4,1.1,0.7,1.5,1.2c0.6-0.8,5.7-13.4,12.8-29.7c2.4,19.8,4.7,42.8,7.1,69.2
	l6.9,81.7c-3.7,2.2-7.3,4.4-10.9,6.7C203.1,249.2,169.3,252,135.5,257.2z M262.6,407.5c-45.5,30.9-78,28.3-78,28.3
	c-7.9-0.6-18.4-1.6-28.2-9c-11.4-8.6-18-22.7-18-38.9c0-3.7,0.3-7.5,1.1-11.2c5.7-28.4,15.8-43.1,34.2-66.6c0,0,4.9-6.4,6.6-8.2
	c2.2-2.4,10.4-10,11.9-11.8c0.8-0.9,4.2-4,4.2-4.1c13.6-12.5,28.1-23.9,43.3-34c2.8-0.1,5.6-0.1,8.5-0.2l9.2,106.9
	c1.2,16.4,3,32.6,5.2,48.6C262.6,407.3,262.6,407.4,262.6,407.5C262.6,407.5,262.6,407.5,262.6,407.5z M275.3,398.5
	c-2,1.5-4.6,3.3-4.6,3.3c0,0,0,0,0,0c0,0,0,0,0,0c-2.5-18-4.5-36.7-5.9-56.2l-8.6-93.9l16.1-0.3c19.2,0,38.5,1.1,57.7,3.4
	c0.9,0,1.4-0.6,1.4-1.7c0-0.9-0.6-1.1-1.4-1.1c-24.4-2.3-49.1-3.4-74.1-3.4c-0.2-2-0.4-4.2-0.6-6.5c18.8-11,38.6-20.1,59.3-26.9
	c18.1,11,39.3,24,63.6,39C364.7,307.9,326.6,360.4,275.3,398.5z M380.3,244.7c-9.4-5.4-16.9-9.8-22.3-12.9
	c-11.4-6.7-22.7-13.3-33.5-19.7c19-5.5,38.6-9.2,58.8-10.6l0.3,10.9C383.6,223.1,382.5,233.9,380.3,244.7z"/>
</svg>
