<?xml version="1.0" ?><svg data-name="Layer 1" id="Layer_1" viewBox="0 0 73.84277 70.80615" xmlns="http://www.w3.org/2000/svg"><defs><style>.cls-1{fill:none;}</style></defs><title/><path class="cls-1" d="M33.084,81.16553a.50537.50537,0,0,0-.44531.37011l-.50586,2.72657.08008.09619H68.40332l.08008-.09619-.50586-2.727a.50551.50551,0,0,0-.44531-.36963H33.084Z" transform="translate(-13.38672 -15.05225)"/><path class="cls-1" d="M41.16992,46.37842,25.59766,39.27881a.75059.75059,0,0,1,0-1.36524l15.57226-7.09912V29.2373L22.26367,37.86816v1.45606l18.90625,8.63086Z" transform="translate(-13.38672 -15.05225)"/><path class="cls-1" d="M85.72949,58.5V20.78369a4.23651,4.23651,0,0,0-4.23144-4.23144H19.11816a4.23651,4.23651,0,0,0-4.23144,4.23144V58.5ZM57.94629,45.896a.75116.75116,0,0,1,.43848-.68262l14.51367-6.61719-14.51367-6.6167a.75116.75116,0,0,1-.43848-.68261V28.07031a.7501.7501,0,0,1,1.06152-.68213L79.41406,36.7041a.74884.74884,0,0,1,.43848.68213v2.41992a.74884.74884,0,0,1-.43848.68213L59.00781,49.8042a.7501.7501,0,0,1-1.06152-.68213ZM50.61816,23.49463a.7506.7506,0,0,1,.73829-.61572H54.583a.75016.75016,0,0,1,.73828.88427L49.99805,52.96191a.7506.7506,0,0,1-.73828.61573H46.0332a.75016.75016,0,0,1-.73828-.88428ZM20.76367,37.38623a.74884.74884,0,0,1,.43848-.68213L41.6084,27.38818a.7501.7501,0,0,1,1.06152.68213v3.22657a.75117.75117,0,0,1-.43847.68261L27.7168,38.59619l14.51465,6.61719a.75117.75117,0,0,1,.43847.68262v3.22607a.7498.7498,0,0,1-1.06152.68213L21.20215,40.48828a.74884.74884,0,0,1-.43848-.68213Z" transform="translate(-13.38672 -15.05225)"/><polygon class="cls-1" points="40.297 9.327 38.596 9.327 33.546 37.025 35.247 37.025 40.297 9.327"/><path class="cls-1" d="M78.35254,37.86816,59.44629,29.2373v1.57715l15.57129,7.09912a.75059.75059,0,0,1,0,1.36524L59.44629,46.37842v1.57666l18.90625-8.63086Z" transform="translate(-13.38672 -15.05225)"/><path class="cls-1" d="M14.88672,60v1.97217a4.23609,4.23609,0,0,0,4.23144,4.231H81.49805a4.23609,4.23609,0,0,0,4.23144-4.23095V60Zm35.4209,4.75781a1.65625,1.65625,0,1,1,1.65625-1.65625A1.65834,1.65834,0,0,1,50.30762,64.75781Z" transform="translate(-13.38672 -15.05225)"/><polygon class="cls-1" points="28.262 64.613 45.581 64.613 42.758 52.651 31.084 52.651 28.262 64.613"/><circle class="cls-1" cx="36.9209" cy="48.04932" r="0.65625"/><path d="M81.49805,15.05225H19.11816a5.73816,5.73816,0,0,0-5.73144,5.73144V61.97217a5.73774,5.73774,0,0,0,5.73144,5.731H42.92938L40.10773,79.66553H33.084a2.003,2.003,0,0,0-1.91992,1.59619l-.50586,2.72656a1.55176,1.55176,0,0,0,1.55469,1.87012H68.40332A1.55162,1.55162,0,0,0,69.958,83.98877l-.50586-2.72754a2.00306,2.00306,0,0,0-1.91992-1.5957H60.50836L57.686,67.70312H81.49805a5.73774,5.73774,0,0,0,5.73144-5.73095V20.78369A5.73816,5.73816,0,0,0,81.49805,15.05225Zm-62.37989,1.5H81.49805a4.23651,4.23651,0,0,1,4.23144,4.23144V58.5H14.88672V20.78369A4.23651,4.23651,0,0,1,19.11816,16.55225ZM67.53223,81.16553a.50551.50551,0,0,1,.44531.36963l.50586,2.727-.08008.09619H32.21289l-.08008-.09619.50586-2.72657a.50537.50537,0,0,1,.44531-.37011H67.53223Zm-8.56446-1.5H41.64844L44.4707,67.70312H56.14453ZM81.49805,66.20312H19.11816a4.23609,4.23609,0,0,1-4.23144-4.23095V60H85.72949v1.97217A4.23609,4.23609,0,0,1,81.49805,66.20312Z" transform="translate(-13.38672 -15.05225)"/><path d="M50.30762,61.44531a1.65625,1.65625,0,1,0,1.65625,1.65625A1.65835,1.65835,0,0,0,50.30762,61.44531Zm0,2.3125a.65625.65625,0,1,1,.65625-.65625A.65673.65673,0,0,1,50.30762,63.75781Z" transform="translate(-13.38672 -15.05225)"/><path d="M21.20215,40.48828,41.6084,49.8042a.7501.7501,0,0,0,1.06152-.68213V45.896a.75117.75117,0,0,0-.43847-.68262L27.7168,38.59619l14.51465-6.6167a.75117.75117,0,0,0,.43847-.68261V28.07031a.7501.7501,0,0,0-1.06152-.68213L21.20215,36.7041a.74884.74884,0,0,0-.43848.68213v2.41992A.74884.74884,0,0,0,21.20215,40.48828Zm1.06152-2.62012L41.16992,29.2373v1.57715L25.59766,37.91357a.75059.75059,0,0,0,0,1.36524l15.57226,7.09961v1.57666L22.26367,39.32422Z" transform="translate(-13.38672 -15.05225)"/><path d="M46.0332,53.57764h3.22657a.7506.7506,0,0,0,.73828-.61573l5.32324-29.19873a.75016.75016,0,0,0-.73828-.88427H51.35645a.7506.7506,0,0,0-.73829.61572L45.29492,52.69336a.75016.75016,0,0,0,.73828.88428Zm5.94922-29.19873h1.70117l-5.0498,27.69873H46.93262Z" transform="translate(-13.38672 -15.05225)"/><path d="M58.69629,49.87207a.75128.75128,0,0,0,.31152-.06787l20.40625-9.31592a.74884.74884,0,0,0,.43848-.68213V37.38623a.74884.74884,0,0,0-.43848-.68213L59.00781,27.38818a.7501.7501,0,0,0-1.06152.68213v3.22657a.75116.75116,0,0,0,.43848.68261l14.51367,6.6167L58.38477,45.21338a.75116.75116,0,0,0-.43848.68262v3.22607a.75048.75048,0,0,0,.75.75Zm.75-3.49365,15.57129-7.09961a.75059.75059,0,0,0,0-1.36524L59.44629,30.81445V29.2373l18.90625,8.63086v1.45606L59.44629,47.95508Z" transform="translate(-13.38672 -15.05225)"/></svg>